<svg width="28" height="32" viewBox="0 0 28 32" fill="none" xmlns="http://www.w3.org/2000/svg">
<path d="M28 14C28 21.732 20.5 27 14 31.5C7.5 27 0 21.732 0 14C0 0 0 0 14 0C28 0 28 0 28 14Z" fill="#FF0000"/>
<path fill-rule="evenodd" clip-rule="evenodd" d="M15.8261 11.3043V4L12.1739 4V11.3043H4.86963V14.9565H12.1739V22.2609H15.8261V14.9565H23.1305V11.3043H15.8261Z" fill="white"/>
<path fill-rule="evenodd" clip-rule="evenodd" d="M12.174 6H8.52182V8.43478H12.174V6ZM19.4783 6.00002H15.8261V8.4348H19.4783V6.00002ZM7.30448 15.7391H9.73926V21.8261H7.30444L7.30448 15.7391ZM20.6958 15.7391H18.261V21.8261H20.6958V15.7391Z" fill="white" fill-opacity="0.8"/>
</svg>
